<svg xmlns="http://www.w3.org/2000/svg" xmlns:xlink="http://www.w3.org/1999/xlink" width="96" height="96" viewBox="0 0 96 96"><defs><style>.a{clip-path:url(#b);}.b{fill:#ff0;}.b,.c,.d,.e{stroke:#000;}.c{fill:lime;}.d{fill:#e0e0e0;font-size:96px;font-family:BodoniMT-Bold, Bodoni MT;font-weight:700;}.e,.h{fill:#fff;}.e{font-size:15px;font-family:BodoniMT, Bodoni MT;}.f{stroke:none;}.g{fill:none;}</style><clipPath id="b"><rect width="96" height="96"/></clipPath></defs><g id="a" class="a"><rect class="h" width="96" height="96"/><g class="b" transform="translate(40 43)"><rect class="f" width="35" height="35"/><rect class="g" x="0.5" y="0.5" width="34" height="34"/></g><path class="c" d="M24.408,4A14.4,14.4,0,0,0,10,18.408c0,10.806,14.408,26.758,14.408,26.758S38.817,29.215,38.817,18.408A14.4,14.4,0,0,0,24.408,4Zm0,19.554a5.146,5.146,0,1,1,5.146-5.146A5.146,5.146,0,0,1,24.408,23.554Z" transform="translate(62.561 15.207) rotate(30)"/><text class="d" transform="translate(20 79)"><tspan x="0" y="0">F</tspan></text><text class="e" transform="translate(42.5 76.5) rotate(-90)"><tspan x="0" y="0">MAP</tspan></text></g></svg>